# xmcd
#
# Track frame offsets:
#	150
#	30637
#	59792
#	83149
#	113474
#	138832
#	165367
#	183392
#	207542
#	231685
#	256442
#	274377
#
# Disc length: 4348 seconds
#
# Revision: 1
# Processed by: cddbd v1.5.1PL0 Copyright (c) Steve Scherf et al.
# Submitted via: audiograbber 1.81.03
#
DISCID=af10fa0c
DTITLE=Van Morrison and John Lee Hooker - Duetts
DYEAR=1900
DGENRE=Blues
TTITLE0=Cover The Waterfront (from Mr. Lucky)
TTITLE1=Medley (from Chill Out)
TTITLE2=The Healing Game (from Don´t Look Back)
TTITLE3=Don´t Look Back (from Don´t Look Back)
TTITLE4=Travellin´ Blues (from Don´t Look Back)
TTITLE5=Rainy Day (from Don´t Look Back)
TTITLE6=Wasted Years (from To Long In Exile)
TTITLE7=Gloria (from To Long In Exile)
TTITLE8=Ain´t No Big Thing (from Don´t Look Back)
TTITLE9=Blues Before Sunrice (from Don´t Look Back)
TTITLE10=Spellbound (from Don´t Look Back)
TTITLE11=Shakin All Over - Gloria (from A Night In San Francisco)
EXTD=
EXTT0=
EXTT1=
EXTT2=
EXTT3=
EXTT4=
EXTT5=
EXTT6=
EXTT7=
EXTT8=only J.L.Hooker
EXTT9=only J.L.Hooker
EXTT10=only J.L.Hooker
EXTT11=only J.L.Hooker
PLAYORDER=
